<svg width="235" height="235" viewBox="0 0 235 235" fill="none" xmlns="http://www.w3.org/2000/svg">
<circle cx="117.5" cy="117.5" r="117.5" fill="#6B805D"/>
<ellipse cx="151.155" cy="43.3982" rx="10.6281" ry="12.6947" fill="#E1E9DA"/>
<ellipse cx="127.242" cy="45.7602" rx="8.56156" ry="9.15201" fill="#E1E9DA"/>
<ellipse cx="106.694" cy="51.3569" rx="6.92116" ry="7.94504" transform="rotate(10.4869 106.694 51.3569)" fill="#E1E9DA"/>
<circle cx="77.6441" cy="77.0539" r="5.01884" fill="#E1E9DA"/>
<ellipse cx="88.2725" cy="61.9975" rx="6.19975" ry="7.08543" fill="#E1E9DA"/>
<path d="M109.635 64.3216L102.419 66.7306C97.3034 68.4386 92.8051 71.6175 89.487 75.8694C85.1101 81.4783 83.0848 88.569 83.8391 95.6436L84.59 102.686L90.5865 128.449C93.2287 139.8 94.0562 151.499 93.0382 163.11L92.1689 173.025C91.9635 175.367 92.0442 177.726 92.4091 180.049L92.5829 181.154C93.8416 189.166 98.6819 196.168 105.732 200.176C111.09 203.222 117.339 204.316 123.413 203.27L127.704 202.532C131.766 201.833 135.58 200.097 138.774 197.491L139.948 196.534C143.939 193.279 146.531 188.618 147.191 183.511C147.773 179.004 146.814 174.433 144.469 170.54L141.37 165.398C139.726 162.668 138.437 159.74 137.536 156.684L137.456 156.41C135.143 148.567 135.316 140.2 137.952 132.459L146.458 107.478C147.542 104.294 148.246 100.993 148.554 97.6441L149.947 82.4929C150.679 74.5341 146.553 66.916 139.488 63.18C135.854 61.2585 131.712 60.5159 127.636 61.0553L118.601 62.2513C115.553 62.6548 112.551 63.348 109.635 64.3216Z" fill="#E1E9DA"/>
</svg>
