<svg width="346" height="395" viewBox="0 0 346 395" fill="none" xmlns="http://www.w3.org/2000/svg">
<circle cx="88" cy="258" r="258" fill="#6B805D"/>
<ellipse cx="161.899" cy="95.2914" rx="23.3367" ry="27.8744" fill="#E1E9DA"/>
<ellipse cx="109.391" cy="100.478" rx="18.799" ry="20.0955" fill="#E1E9DA"/>
<ellipse cx="64.2734" cy="112.767" rx="15.1971" ry="17.4453" transform="rotate(10.4869 64.2734 112.767)" fill="#E1E9DA"/>
<circle cx="0.486775" cy="169.191" r="11.0201" fill="#E1E9DA"/>
<ellipse cx="23.8239" cy="136.131" rx="13.6131" ry="15.5578" fill="#E1E9DA"/>
<path d="M70.73 141.234L54.8864 146.523C43.6535 150.274 33.7762 157.254 26.4907 166.59C16.8799 178.906 12.433 194.475 14.0893 210.009L15.738 225.471L30.4351 288.615C35.2229 309.185 36.7223 330.384 34.8776 351.423L32.3793 379.918C31.9283 385.061 32.1054 390.24 32.9068 395.341L33.2883 397.769C36.0521 415.361 46.6802 430.735 62.1613 439.536C73.9261 446.224 87.6462 448.625 100.983 446.33L110.405 444.708C119.326 443.173 127.698 439.361 134.712 433.64L137.29 431.538C146.053 424.391 151.744 414.158 153.193 402.943C154.472 393.047 152.365 383.01 147.216 374.463L140.413 363.171C136.802 357.178 133.973 350.748 131.994 344.037L131.817 343.437C126.739 326.215 127.12 307.842 132.908 290.845L151.585 235.995C153.965 229.004 155.51 221.756 156.186 214.401L159.245 181.133C160.852 163.658 151.793 146.93 136.279 138.727C128.3 134.508 119.205 132.877 110.257 134.062L90.4176 136.688C83.7255 137.574 77.1331 139.096 70.73 141.234Z" fill="#E1E9DA"/>
</svg>
